<?xml version="1.0" encoding="utf-8"?>
<svg xmlns="http://www.w3.org/2000/svg" style="margin: auto; background: rgb(0, 0, 0); display: block; shape-rendering: crispedges;" width="277" height="245" preserveAspectRatio="xMidYMid">
<style type="text/css">
  text {
    text-anchor: middle; font-size: 80px; opacity: 0;
  }
</style>
<g style="transform-origin:138.5px 122.5px;transform:scale(1)">
<g transform="translate(138.5,122.5)">
  <g transform="translate(-1,0)"><g class="path" style="transform: scale(1); transform-origin: -55.56px -3.2392px; animation: 1s linear 0s infinite normal forwards running beat-408423ac-cb41-4b0a-b316-0494919d13b1;"><path d="M7.20-0.16L7.20-55.84L7.20-55.84Q10.96-56.24 14.56-56.44L14.56-56.44L14.56-56.44Q18.16-56.64 22.80-56.64L22.80-56.64L22.80-56.64Q30-56.64 35.20-54.40L35.20-54.40L35.20-54.40Q40.40-52.16 43.84-48.24L43.84-48.24L43.84-48.24Q47.28-44.32 48.92-39.12L48.92-39.12L48.92-39.12Q50.56-33.92 50.56-28.08L50.56-28.08L50.56-28.08Q50.56-22.24 48.88-17L48.88-17L48.88-17Q47.20-11.76 43.72-7.84L43.72-7.84L43.72-7.84Q40.24-3.92 34.84-1.64L34.84-1.64L34.84-1.64Q29.44 0.64 21.92 0.64L21.92 0.64L21.92 0.64Q17.36 0.64 13.96 0.44L13.96 0.44L13.96 0.44Q10.56 0.24 7.20-0.16L7.20-0.16zM22.56-50.08L22.56-50.08L22.56-50.08Q20.24-50.08 18.32-49.96L18.32-49.96L18.32-49.96Q16.40-49.84 14.80-49.68L14.80-49.68L14.80-6.40L14.80-6.40Q16.48-6.16 18.32-6.08L18.32-6.08L18.32-6.08Q20.16-6 22.16-6L22.16-6L22.16-6Q27.52-6 31.44-7.64L31.44-7.64L31.44-7.64Q35.36-9.28 37.88-12.20L37.88-12.20L37.88-12.20Q40.40-15.12 41.60-19.16L41.60-19.16L41.60-19.16Q42.80-23.20 42.80-28.08L42.80-28.08L42.80-28.08Q42.80-32.40 41.60-36.36L41.60-36.36L41.60-36.36Q40.40-40.32 37.92-43.40L37.92-43.40L37.92-43.40Q35.44-46.48 31.60-48.28L31.60-48.28L31.60-48.28Q27.76-50.08 22.56-50.08" fill="#ffee00" stroke="none" stroke-width="none" transform="translate(-84.44000244140625,24.760801391601564)" style="fill: rgb(255, 238, 0);"></path></g><g class="path" style="transform: scale(1); transform-origin: -4.76px -2.8392px; animation: 1s linear -0.165s infinite normal forwards running beat-408423ac-cb41-4b0a-b316-0494919d13b1;"><path d="M60.24 0.64L53.76-2L75.68-56L84-56L105.60-2L98.64 0.80L92.40-15.20L66.48-15.20L60.24 0.64zM79.44-48.48L68.88-21.60L89.92-21.60L79.44-48.48" fill="#ffee00" stroke="none" stroke-width="none" transform="translate(-84.44000244140625,24.760801391601564)" style="fill: rgb(255, 238, 0);"></path></g><g class="path" style="transform: scale(1); transform-origin: 38.28px -5.3192px; animation: 1s linear -0.33s infinite normal forwards running beat-408423ac-cb41-4b0a-b316-0494919d13b1;"><path d="M138.24-57.52L136.08-51.44L136.08-51.44Q134.40-52.32 132.48-53.04L132.48-53.04L132.48-53.04Q130.56-53.76 128.24-53.76L128.24-53.76L128.24-53.76Q124.88-53.76 122.84-51.64L122.84-51.64L122.84-51.64Q120.80-49.52 120.80-45.44L120.80-45.44L120.80-40.08L133.12-40.08L133.12-33.84L120.80-33.84L120.80 0L113.60 0L113.60-33.84L107.20-33.84L107.20-40.08L113.60-40.08L113.60-44.96L113.60-44.96Q113.60-48.48 114.64-51.28L114.64-51.28L114.64-51.28Q115.68-54.08 117.52-56.08L117.52-56.08L117.52-56.08Q119.36-58.08 122-59.12L122-59.12L122-59.12Q124.64-60.16 127.76-60.16L127.76-60.16L127.76-60.16Q131.12-60.16 133.56-59.40L133.56-59.40L133.56-59.40Q136-58.64 138.24-57.52L138.24-57.52" fill="#ffee00" stroke="none" stroke-width="none" transform="translate(-84.44000244140625,24.760801391601564)" style="fill: rgb(255, 238, 0);"></path></g><g class="path" style="transform: scale(1); transform-origin: 71.32px 12.7608px; animation: 1s linear -0.495s infinite normal forwards running beat-408423ac-cb41-4b0a-b316-0494919d13b1;"><path d="M142.48 18.56L142.48 18.56L142.48 18.56Q140.08 18.56 138.28 18.08L138.28 18.08L138.28 18.08Q136.48 17.60 135.44 16.96L135.44 16.96L137.04 10.96L137.04 10.96Q138.00 11.52 139.40 11.92L139.40 11.92L139.40 11.92Q140.80 12.32 142.64 12.32L142.64 12.32L142.64 12.32Q144.32 12.32 145.80 11.84L145.80 11.84L145.80 11.84Q147.28 11.36 148.64 10.16L148.64 10.16L148.64 10.16Q150.00 8.96 151.24 6.88L151.24 6.88L151.24 6.88Q152.48 4.80 153.68 1.68L153.68 1.68L155.52-3.12L151.68-3.12L135.44-39.68L141.84-42.56L157.36-7.92L169.44-42.24L176.08-39.68L160.80 2.08L160.80 2.08Q159.04 6.88 157.08 10.04L157.08 10.04L157.08 10.04Q155.12 13.20 152.88 15.12L152.88 15.12L152.88 15.12Q150.64 17.04 148.04 17.80L148.04 17.80L148.04 17.80Q145.44 18.56 142.48 18.56" fill="#ffee00" stroke="none" stroke-width="none" transform="translate(-84.44000244140625,24.760801391601564)" style="fill: rgb(255, 238, 0);"></path></g></g>
</g>
</g>
<style id="beat-408423ac-cb41-4b0a-b316-0494919d13b1" data-anikit="">@keyframes beat-408423ac-cb41-4b0a-b316-0494919d13b1
{
  0% {
    animation-timing-function: cubic-bezier(0.1028,0.2484,0.1372,0.849);
    transform: scale(1);
  }
  34% {
    animation-timing-function: cubic-bezier(0.7116,0.2095,0.8159,0.6876);
    transform: scale(1.2);
  }
  68% {
    animation-timing-function: cubic-bezier(0.1475,0.2888,0.294,0.883);
    transform: scale(1.0268);
  }
  84% {
    animation-timing-function: cubic-bezier(0.8176,0.2193,0.867,0.6889);
    transform: scale(1.0932);
  }
  100% {
    transform: scale(1);
  }
}</style></svg>